<svg xmlns="http://www.w3.org/2000/svg" width="181" height="207">
  <path fill="#000" d="M7.30 122L9.45 122L9.45 77.70L19.64 77.70L19.64 75.77L9.45 75.77L9.45 68.80C9.45 62.49 12.33 60.17 16.93 60.17C18.09 60.17 19.16 60.30 20.07 60.60L20.07 58.62C19.38 58.36 18.18 58.19 16.89 58.19C11.04 58.19 7.30 61.24 7.30 68.50L7.30 75.77L0.86 75.77L0.86 77.70L7.30 77.70ZM27.03 122L29.13 122L29.13 93.21C29.13 83.84 33.86 77.10 41.51 77.10C43.79 77.10 45.46 77.66 46.49 78.17L46.49 75.98C45.59 75.59 43.79 75.08 41.85 75.08C35.49 75.08 31.11 78.64 29.09 85.35L29.00 85.35L29.00 75.77L27.03 75.77ZM67.07"/>
  <path fill="#4c1" d="M67.07 120.71C59.43 120.71 53.80 116.07 53.80 109.71C53.80 103.05 58.87 99.14 68.32 98.41L84.69 97.16L84.69 104.98C84.69 113.62 76.79 120.71 67.07 120.71ZM66.95 122.69C75.20 122.69 82.41 118.09 84.65 111.47L84.69 111.47L84.69 122L86.80 122L86.80 90.98C86.80 81.18 80.65 75.08 70.73 75.08C60.97 75.08 54.31 80.45 53.32 89.21L55.34 89.21C56.55 81.48 62.09 77.05 70.73 77.05C79.45 77.05 84.69 82.34 84.69 91.11L84.69 95.27L67.98 96.56C57.23 97.42 51.65 101.85 51.65 109.71C51.65 117.32 57.96 122.69 66.95 122.69ZM96.81 122L98.91 122L98.91 94.24C98.91 84.14 105.49 77.05 114.98 77.05C124.01 77.05 130.32 82.81 130.32 92.18L130.32 122L132.43 122L132.43 92.09C132.43 81.70 125.43 75.08 115.24 75.08C107.16 75.08 100.85 79.85 98.87 86.68L98.79 86.68L98.79 75.77L96.81 75.77ZM178.45 89.34C176.95 81.14 169.68 75.08 160.23 75.08C147.94 75.08 140.08 84.32 140.08 98.88C140.08 113.49 147.90 122.69 160.23 122.69C169.86 122.69 176.90 117.02 178.36 108.81L176.21 108.81C174.80 115.81 168.61 120.67 160.23 120.67C149.10 120.67 142.23 112.20 142.23 98.88C142.23 85.56 149.14 77.05 160.23 77.05C168.52 77.05 174.84 82.21 176.30 89.34Z"/>
</svg>
